<svg version="1.0" xmlns="http://www.w3.org/2000/svg"
 width="200" height="200" viewBox="0 0 1280.000000 692.000000"
 preserveAspectRatio="xMidYMid meet">
<g transform="translate(0.000000,692.000000) scale(0.100000,-0.100000)"
fill="#000000" stroke="none">
<path d="M5068 6915 c-4 -5 -50 -8 -953 -70 -280 -19 -560 -41 -620 -50 -61
-8 -151 -15 -200 -15 -73 0 -96 -4 -123 -20 -52 -32 -36 -44 74 -55 78 -8 99
-13 102 -26 4 -20 -14 -28 -93 -43 -80 -15 -88 -32 -93 -193 -7 -208 41 -763
74 -859 15 -44 15 -47 -5 -65 -25 -24 -35 -58 -34 -124 0 -62 21 -439 29 -521
7 -72 -7 -93 -47 -71 -68 36 -297 212 -461 354 -144 124 -220 180 -298 217
-64 31 -67 31 -220 31 -85 0 -186 -6 -225 -13 -38 -7 -106 -17 -150 -22 -44
-6 -117 -18 -161 -26 l-81 -16 -6 -66 c-6 -57 -3 -72 18 -117 16 -31 28 -78
32 -119 5 -55 11 -73 30 -89 14 -12 32 -49 43 -89 12 -37 25 -70 30 -73 6 -3
10 -19 10 -34 0 -16 6 -34 13 -40 17 -14 73 -214 75 -271 2 -27 19 -94 35
-130 8 -19 17 -59 21 -89 8 -64 -5 -80 -42 -50 -14 10 -31 19 -39 19 -8 0 -28
9 -44 21 -38 27 -591 297 -727 355 -153 65 -291 111 -406 135 -118 24 -253 23
-429 -6 -92 -15 -114 -22 -140 -46 -17 -16 -37 -29 -44 -29 -9 0 -13 -18 -13
-58 0 -87 32 -131 389 -529 187 -209 323 -360 391 -437 50 -57 61 -74 58 -100
-3 -33 -8 -36 -116 -82 -86 -37 -112 -70 -112 -142 0 -31 7 -82 15 -112 8 -30
15 -78 15 -107 0 -45 4 -54 30 -76 20 -17 48 -28 85 -32 86 -11 92 -32 20 -75
-68 -40 -95 -75 -95 -123 0 -24 7 -52 15 -63 8 -12 21 -54 30 -93 13 -56 24
-80 50 -105 32 -33 48 -38 193 -72 72 -16 72 -16 72 -50 0 -20 -60 -178 -154
-406 -188 -454 -238 -593 -239 -669 -4 -137 86 -171 393 -149 217 16 266 24
310 55 103 71 384 319 580 511 74 73 263 248 420 388 l285 255 55 1 c30 0 102
5 160 11 94 10 119 9 231 -10 69 -12 191 -25 271 -30 149 -9 198 -22 216 -59
5 -9 17 -60 26 -112 10 -52 22 -113 27 -135 6 -22 14 -67 18 -100 5 -33 16
-76 25 -95 9 -19 43 -150 76 -290 46 -193 70 -274 99 -335 26 -55 40 -100 45
-143 3 -35 10 -71 15 -81 6 -9 21 -83 36 -162 54 -307 104 -419 185 -419 24 0
43 -7 54 -19 22 -25 15 -38 -27 -46 -36 -8 -69 -33 -61 -46 3 -5 18 -9 34 -9
34 0 60 -23 60 -53 0 -12 7 -31 15 -41 8 -11 15 -35 15 -54 0 -19 5 -52 12
-73 10 -35 15 -39 44 -39 18 0 35 4 38 9 3 4 26 14 52 21 l46 13 -7 41 c-4 23
-7 52 -8 66 l-2 25 184 17 c102 9 205 21 230 27 25 6 102 13 171 16 69 3 202
13 295 21 255 22 568 34 582 22 6 -5 15 -23 18 -39 4 -16 10 -31 15 -34 4 -3
35 20 69 50 38 33 71 55 85 55 26 0 112 35 121 50 3 4 -21 14 -52 20 -106 21
-120 27 -228 105 -10 6 -21 3 -36 -10 -20 -19 -35 -20 -223 -17 -110 2 -246 6
-301 10 -95 7 -100 8 -103 30 -2 13 3 31 11 40 8 9 18 28 22 42 18 59 299 592
319 604 33 21 776 101 814 88 6 -2 12 -11 12 -19 0 -13 13 -15 84 -11 71 5 93
11 147 41 96 53 339 112 415 100 20 -3 35 1 43 11 8 9 24 16 37 16 15 0 24 6
24 15 0 9 -9 15 -21 15 -11 0 -34 8 -51 17 -28 17 -30 17 -39 1 -8 -14 -23
-18 -62 -18 -94 0 -293 29 -371 55 -74 24 -156 32 -191 19 -9 -4 -21 -17 -26
-30 -14 -39 -73 -25 -142 32 -16 13 -35 24 -43 24 -8 0 -31 9 -51 20 -21 11
-43 20 -50 20 -17 0 -17 24 0 38 6 6 89 18 182 27 164 15 295 33 550 76 118
19 265 64 454 139 53 21 110 41 126 44 45 10 105 69 105 103 0 57 -94 94 -361
143 -165 30 -168 30 -531 30 -305 0 -367 2 -384 15 -10 8 -31 15 -45 15 -33 0
-79 36 -79 61 0 11 12 38 26 60 14 22 41 75 60 116 19 42 64 127 99 188 36 61
65 119 65 127 0 22 11 25 214 53 99 14 258 37 351 50 94 13 256 36 360 51 195
27 565 116 705 171 184 71 220 86 266 116 57 38 62 58 16 68 -18 4 -36 9 -39
12 -13 14 8 35 40 41 40 7 60 27 51 49 -10 26 52 70 139 100 68 23 157 37 532
82 248 30 581 71 740 91 160 20 324 40 365 44 41 5 95 13 120 18 25 6 130 15
235 21 176 9 194 8 245 -10 85 -30 113 -21 73 23 -29 32 -63 24 482 113 682
112 871 153 1175 254 269 91 369 145 370 202 0 17 5 16 -315 88 -258 58 -412
82 -751 115 -650 64 -680 66 -1195 66 l-486 0 -169 34 c-93 19 -218 41 -279
51 -60 9 -142 23 -182 31 -153 30 -388 15 -653 -43 -91 -20 -199 -40 -240 -44
-41 -4 -95 -12 -120 -18 -29 -6 -258 -10 -633 -11 l-588 0 -117 29 c-64 16
-151 34 -192 41 -106 16 -392 29 -622 30 l-196 0 -33 43 c-18 23 -60 72 -93
109 -117 129 -128 144 -124 180 l3 32 120 18 c66 9 134 24 150 32 17 8 39 17
50 21 35 10 78 52 72 69 -8 21 -80 56 -117 56 -35 0 -248 69 -329 106 -29 14
-74 29 -100 34 -93 19 -154 39 -193 65 -100 67 -315 307 -630 705 -102 129
-196 244 -208 255 -13 11 -48 52 -79 90 -30 39 -74 90 -97 115 -24 25 -46 58
-49 73 l-7 27 69 0 c89 0 175 16 217 41 23 13 65 22 147 29 63 5 141 14 174
20 33 5 75 10 93 10 34 0 136 43 148 62 15 24 -39 48 -107 48 -36 0 -68 -2
-71 -5z"/>
</g>
</svg>
